<svg xmlns="http://www.w3.org/2000/svg"><symbol id="xrp" viewBox="0 0 156.3 156.3"><style>.st0{fill:#f7f7f7}</style><path d="M78.2 156.3c-43.1 0-78.2-35-78.2-78.1S35.1 0 78.2 0s78.2 35.1 78.2 78.2-35.1 78.1-78.2 78.1zM78.2 9C40 9 9 40 9 78.2c0 38.1 31 69.2 69.2 69.2s69.2-31 69.2-69.2C147.3 40 116.3 9 78.2 9z" class="st0"/><path d="M78.2 138.2c-33.1 0-60-26.9-60-60s26.9-60 60-60 60 26.9 60 60c0 33-27 60-60 60zm0-116c-30.9 0-56 25.1-56 56s25.1 56 56 56 56-25.1 56-56-25.2-56-56-56z" class="st0"/><path d="M107.5 89.3c-.4-.7-.8-1.4-1.4-2.1-3.5-4.5-9.2-6.2-14.3-4.9-1.5.4-3.1-.1-4.1-1.2-1-1.1-1.3-2.6-.8-4 .5-1.5 1.8-2.5 3.3-2.7 5.5-.9 10.2-5.1 11.4-11.1.8-4.2-.4-8.5-3.1-11.7-1.3-1.5-2.9-2.7-4.7-3.6-3.3-1.5-6.8-1.6-9.9-.6-4 1.2-7.4 4.3-8.9 8.4-.1.2-.1.3-.2.5-1.1 3.2-.9 6.6.3 9.5.7 1.7 1.7 3.3 2.9 4.6.1.1.2.3.3.4.8 1.1 1.1 2.5.7 3.8-.5 1.4-1.6 2.4-3 2.7-1.3.3-2.5-.1-3.5-.9l-.6-.6c-1.1-1.3-2.4-2.4-3.9-3.3-2.6-1.5-5.7-2.1-8.8-1.7-.6.1-1.1.2-1.7.3-5.2 1.4-8.9 5.7-10 10.7-.3 1.6-.4 3.2-.1 4.9.2 1.5.7 2.8 1.3 4.1.9 1.8 2.2 3.3 3.7 4.6 3.1 2.5 7.3 3.7 11.6 2.8 5.3-1.1 9.2-5 10.6-9.8.4-1.5 1.6-2.6 3.1-2.9 1.4-.3 2.9.2 3.9 1.3 1 1.2 1.3 2.8.7 4.2-1.8 4.7-1 10.2 2.6 14.2 1 1.1 2.1 2 3.3 2.7 4.3 2.6 9.8 2.6 14.2 0 1-.6 1.9-1.2 2.7-2 .7-.7 1.3-1.5 1.8-2.3 2.7-4.4 3-9.8.6-14.3z" class="st0"/></symbol><symbol id="bitcoin" viewBox="0 0 156.3 156.3"><style>.st0{fill:#f7f7f7}</style><path d="M97.8 82.4c-2-2.6-4.6-4.2-8-4.7 6.6-2.2 9.8-6.5 9.8-12.9 0-4.3-1.5-7.8-4.5-10.5-.2-.2-.4-.3-.5-.5-1.6-1.3-3.4-2.3-5.5-2.9-.8-.2-1.6-.4-2.5-.6v-8.5h-6.9V50h-3.6v-8.3h-6.9V50h-7.7v56.3h7.7v8.3h6.9v-8.3h3.6v8.2h6.9v-8.4c.7-.1 1.3-.1 1.9-.3 3.2-.5 5.8-1.7 7.9-3.6 2.2-2 3.6-4.6 4.1-7.8.2-.9.2-1.9.2-2.9.1-3.4-.9-6.5-2.9-9.1zm-24.2-9.8V60.5h7.9c1.7 0 3.1.5 4.2 1.6 0 0 0 .1.1.1 1 1 1.5 2.5 1.5 4.5s-.5 3.5-1.6 4.5-2.5 1.5-4.2 1.5h-7.9zm13.3 21.5c-1.1 1.1-2.5 1.7-4.1 1.7h-9.1V83H83c1.7 0 3 .6 4 1.8 1 1.2 1.6 2.7 1.6 4.7-.1 2-.7 3.5-1.7 4.6z" class="st0"/><path d="M78.2 156.3c-43.1 0-78.2-35-78.2-78.1S35.1 0 78.2 0s78.2 35.1 78.2 78.2-35.1 78.1-78.2 78.1zM78.2 9C40 9 9 40 9 78.2c0 38.1 31 69.2 69.2 69.2s69.2-31 69.2-69.2C147.3 40 116.3 9 78.2 9z" class="st0"/><path d="M78.2 138.2c-33.1 0-60-26.9-60-60s26.9-60 60-60 60 26.9 60 60c0 33-27 60-60 60zm0-116c-30.9 0-56 25.1-56 56s25.1 56 56 56 56-25.1 56-56-25.2-56-56-56z" class="st0"/></symbol><symbol id="ethereum" viewBox="0 0 156.3 156.3"><style>.st0{fill:#f7f7f7}</style><path d="M78.2 87.9l19-11.9-9.9-19.4-2.5-4.9-3.2-6.1-3.4-6.8-10.1 19.6-9 17.6 4.6 2.9z" class="st0"/><path d="M60.3 82.1l-.2.2 14.4 28 3.7 7.2 10.5-20.7 7.7-15-18.2 11.4z" class="st0"/><path d="M78.2 156.3c-43.1 0-78.2-35-78.2-78.1S35.1 0 78.2 0s78.2 35.1 78.2 78.2-35.1 78.1-78.2 78.1zM78.2 9C40 9 9 40 9 78.2c0 38.1 31 69.2 69.2 69.2s69.2-31 69.2-69.2C147.3 40 116.3 9 78.2 9z" class="st0"/><path d="M78.2 138.2c-33.1 0-60-26.9-60-60s26.9-60 60-60 60 26.9 60 60c0 33-27 60-60 60zm0-116c-30.9 0-56 25.1-56 56s25.1 56 56 56 56-25.1 56-56-25.2-56-56-56z" class="st0"/></symbol><symbol id="lightcoin" viewBox="0 0 156.3 156.3"><style>.st0{fill:#f7f7f7}</style><path d="M99.2 96.6H72.8l6.9-14.3 17.5-3.1v-9.8l-12.4 2.2 6.6-13.9 5.7-11.9H81.6L79 51.3l-8.8 18.4-2.3 4.8-3.4.6-11.3 2v9.8l9.1-1.6.6-.1-6.6 13.9c-2.5 5.3 1.3 11.4 7.2 11.4h33.9l6.1-14h-4.3z" class="st0"/><path d="M78.2 156.3c-43.1 0-78.2-35-78.2-78.1S35.1 0 78.2 0s78.2 35.1 78.2 78.2-35.1 78.1-78.2 78.1zM78.2 9C40 9 9 40 9 78.2c0 38.1 31 69.2 69.2 69.2s69.2-31 69.2-69.2C147.3 40 116.3 9 78.2 9z" class="st0"/><path d="M78.2 138.2c-33.1 0-60-26.9-60-60s26.9-60 60-60 60 26.9 60 60c0 33-27 60-60 60zm0-116c-30.9 0-56 25.1-56 56s25.1 56 56 56 56-25.1 56-56-25.2-56-56-56z" class="st0"/></symbol></svg>